<?xml version="1.0" encoding="UTF-8" standalone="no"?>
<!-- This is a Stata 16.1 generated SVG file (http://www.stata.com) -->

<svg version="1.1" width="5.50in" height="4.00in" viewBox="0 0 3960 2880" xmlns="http://www.w3.org/2000/svg" xmlns:xlink="http://www.w3.org/1999/xlink">
	<desc>Stata Graph - Graph</desc>
	<rect x="0" y="0" width="3960" height="2880" style="fill:#EAF2F3;stroke:none"/>
	<rect x="0.00" y="0.00" width="3959.88" height="2880.00" style="fill:#EAF2F3"/>
	<rect x="2.88" y="2.88" width="3954.12" height="2874.24" style="fill:none;stroke:#EAF2F3;stroke-width:5.76"/>
	<rect x="390.80" y="275.35" width="3468.22" height="2213.83" style="fill:#FFFFFF"/>
	<rect x="393.68" y="278.23" width="3462.46" height="2208.07" style="fill:none;stroke:#FFFFFF;stroke-width:5.76"/>
	<line x1="390.80" y1="2425.82" x2="3859.02" y2="2425.82" style="stroke:#EAF2F3;stroke-width:8.64"/>
	<line x1="390.80" y1="1904.08" x2="3859.02" y2="1904.08" style="stroke:#EAF2F3;stroke-width:8.64"/>
	<line x1="390.80" y1="1382.33" x2="3859.02" y2="1382.33" style="stroke:#EAF2F3;stroke-width:8.64"/>
	<line x1="390.80" y1="860.46" x2="3859.02" y2="860.46" style="stroke:#EAF2F3;stroke-width:8.64"/>
	<line x1="390.80" y1="338.71" x2="3859.02" y2="338.71" style="stroke:#EAF2F3;stroke-width:8.64"/>
	<defs>
		<path id="path_RmEtXhnT" d="M747.08 2413.82 L747.08 2413.82 L782.72 2411.22 L818.48 2401.57 L854.25 2383.50 L889.89 2361.35 L925.65 2287.22 L961.29 2163.84 L997.05 1907.67 L1032.69 1637.63 L1068.46 1273.06 L1104.22 944.12 L1139.86 662.58 L1175.63 481.90 L1211.27 411.85 L1247.03 429.80 L1282.67 639.68 L1318.43 867.89 L1354.20 1158.71 L1389.84 1423.54 L1425.60 1633.80 L1461.24 1717.08 L1497.00 1757.06 L1532.64 1799.26 L1568.41 1851.23 L1604.17 1917.69 L1639.81 2026.22 L1675.58 2127.33 L1711.21 2188.96 L1746.98 2243.91 L1782.62 2275.59 L1818.38 2303.31 L1854.15 2315.19 L1889.79 2331.52 L1925.55 2337.59 L1961.19 2340.19 L1996.95 2330.29 L2032.59 2325.09 L2068.36 2309.74 L2104.12 2306.90 L2139.76 2311.10 L2175.53 2319.89 L2211.16 2342.78 L2246.93 2364.32 L2282.57 2394.14 L2318.33 2406.89 L2354.10 2412.83 L2389.74 2413.32 L2425.50 2411.10 L2461.14 2411.22 L2496.90 2413.82 L2496.90 2425.82 L2461.14 2425.82 L2425.50 2425.82 L2389.74 2425.82 L2354.10 2425.82 L2318.33 2425.82 L2282.57 2425.82 L2246.93 2425.82 L2211.16 2425.82 L2175.53 2425.82 L2139.76 2425.82 L2104.12 2425.82 L2068.36 2425.82 L2032.59 2425.82 L1996.95 2425.82 L1961.19 2425.82 L1925.55 2425.82 L1889.79 2425.82 L1854.15 2425.82 L1818.38 2425.82 L1782.62 2425.82 L1746.98 2425.82 L1711.21 2425.82 L1675.58 2425.82 L1639.81 2425.82 L1604.17 2425.82 L1568.41 2425.82 L1532.64 2425.82 L1497.00 2425.82 L1461.24 2425.82 L1425.60 2425.82 L1389.84 2425.82 L1354.20 2425.82 L1318.43 2425.82 L1282.67 2425.82 L1247.03 2425.82 L1211.27 2425.82 L1175.63 2425.82 L1139.86 2425.82 L1104.22 2425.82 L1068.46 2425.82 L1032.69 2425.82 L997.05 2425.82 L961.29 2425.82 L925.65 2425.82 L889.89 2425.82 L854.25 2425.82 L818.48 2425.82 L782.72 2425.82 L747.08 2425.82 L747.08 2413.82 Z" stroke-linejoin="round"/>
	</defs>
	<defs>
		<clipPath id="clipPath_jjGzbcdu">
			<use xlink:href="#path_RmEtXhnT"/>
		</clipPath>
	</defs>
	<use xlink:href="#path_RmEtXhnT" style="stroke:none;fill:#3333FF;fill-opacity:0.50"/>
	<use xlink:href="#path_RmEtXhnT" style="fill:none;stroke:#0000FF;stroke-opacity:0.50;stroke-width:17.28" clip-path="url(#clipPath_jjGzbcdu)"/>
	<defs>
		<path id="path_oJqIwYYl" d="M588.80 2415.43 L588.80 2415.43 L652.04 2412.95 L715.27 2408.99 L778.51 2406.02 L841.75 2351.57 L904.98 2217.30 L968.22 1956.55 L1031.46 1554.60 L1094.57 1131.11 L1157.81 658.00 L1221.04 425.22 L1284.28 675.45 L1347.51 1226.65 L1410.75 1502.25 L1473.99 1585.91 L1537.22 1806.93 L1600.46 2045.78 L1663.69 2157.65 L1726.93 2228.06 L1790.17 2290.07 L1853.40 2333.87 L1916.64 2314.94 L1979.88 2304.54 L2043.11 2308.50 L2106.35 2356.64 L2169.59 2397.98 L2232.82 2385.60 L2296.06 2377.81 L2359.29 2396.62 L2422.53 2424.71 L2485.77 2425.82 L2549.00 2425.82 L2612.11 2425.82 L2675.35 2425.82 L2738.59 2425.82 L2801.82 2425.82 L2865.06 2425.82 L2928.30 2425.82 L2991.53 2425.82 L3054.77 2425.82 L3118.01 2425.82 L3181.24 2425.82 L3244.48 2425.82 L3307.71 2425.82 L3370.95 2425.82 L3434.19 2425.82 L3497.42 2425.82 L3560.66 2417.53 L3623.89 2412.95 L3687.13 2415.43 L3687.13 2425.82 L3623.89 2425.82 L3560.66 2425.82 L3497.42 2425.82 L3434.19 2425.82 L3370.95 2425.82 L3307.71 2425.82 L3244.48 2425.82 L3181.24 2425.82 L3118.01 2425.82 L3054.77 2425.82 L2991.53 2425.82 L2928.30 2425.82 L2865.06 2425.82 L2801.82 2425.82 L2738.59 2425.82 L2675.35 2425.82 L2612.11 2425.82 L2549.00 2425.82 L2485.77 2425.82 L2422.53 2425.82 L2359.29 2425.82 L2296.06 2425.82 L2232.82 2425.82 L2169.59 2425.82 L2106.35 2425.82 L2043.11 2425.82 L1979.88 2425.82 L1916.64 2425.82 L1853.40 2425.82 L1790.17 2425.82 L1726.93 2425.82 L1663.69 2425.82 L1600.46 2425.82 L1537.22 2425.82 L1473.99 2425.82 L1410.75 2425.82 L1347.51 2425.82 L1284.28 2425.82 L1221.04 2425.82 L1157.81 2425.82 L1094.57 2425.82 L1031.46 2425.82 L968.22 2425.82 L904.98 2425.82 L841.75 2425.82 L778.51 2425.82 L715.27 2425.82 L652.04 2425.82 L588.80 2425.82 L588.80 2415.43 Z" stroke-linejoin="round"/>
	</defs>
	<defs>
		<clipPath id="clipPath_yetqzmrG">
			<use xlink:href="#path_oJqIwYYl"/>
		</clipPath>
	</defs>
	<use xlink:href="#path_oJqIwYYl" style="stroke:none;fill:#993399;fill-opacity:0.50"/>
	<use xlink:href="#path_oJqIwYYl" style="fill:none;stroke:#800080;stroke-opacity:0.50;stroke-width:17.28" clip-path="url(#clipPath_yetqzmrG)"/>
	<defs>
		<path id="path_HzbwZMDD" d="M652.66 2423.22 L652.66 2423.22 L693.99 2421.99 L735.45 2421.12 L776.90 2421.37 L818.36 2416.29 L859.82 2397.24 L901.27 2370.26 L942.73 2314.57 L984.06 2225.47 L1025.52 2098.49 L1066.97 1933.78 L1108.43 1746.79 L1149.88 1505.22 L1191.34 1305.97 L1232.80 1139.15 L1274.25 942.63 L1315.59 908.72 L1357.04 857.24 L1398.50 853.90 L1439.95 843.14 L1481.41 958.60 L1522.87 1115.89 L1564.32 1342.23 L1605.78 1575.02 L1647.11 1777.85 L1688.57 1901.23 L1730.03 2014.96 L1771.48 2125.97 L1812.94 2173.61 L1854.39 2230.66 L1895.85 2263.33 L1937.18 2296.50 L1978.64 2306.52 L2020.10 2316.92 L2061.55 2326.33 L2103.01 2342.17 L2144.46 2358.38 L2185.92 2371.74 L2227.38 2378.43 L2268.71 2386.47 L2310.16 2400.95 L2351.62 2404.79 L2393.08 2410.35 L2434.53 2414.81 L2475.99 2418.40 L2517.45 2420.13 L2558.90 2417.53 L2600.24 2416.91 L2641.69 2419.64 L2683.15 2424.21 L2683.15 2425.82 L2641.69 2425.82 L2600.24 2425.82 L2558.90 2425.82 L2517.45 2425.82 L2475.99 2425.82 L2434.53 2425.82 L2393.08 2425.82 L2351.62 2425.82 L2310.16 2425.82 L2268.71 2425.82 L2227.38 2425.82 L2185.92 2425.82 L2144.46 2425.82 L2103.01 2425.82 L2061.55 2425.82 L2020.10 2425.82 L1978.64 2425.82 L1937.18 2425.82 L1895.85 2425.82 L1854.39 2425.82 L1812.94 2425.82 L1771.48 2425.82 L1730.03 2425.82 L1688.57 2425.82 L1647.11 2425.82 L1605.78 2425.82 L1564.32 2425.82 L1522.87 2425.82 L1481.41 2425.82 L1439.95 2425.82 L1398.50 2425.82 L1357.04 2425.82 L1315.59 2425.82 L1274.25 2425.82 L1232.80 2425.82 L1191.34 2425.82 L1149.88 2425.82 L1108.43 2425.82 L1066.97 2425.82 L1025.52 2425.82 L984.06 2425.82 L942.73 2425.82 L901.27 2425.82 L859.82 2425.82 L818.36 2425.82 L776.90 2425.82 L735.45 2425.82 L693.99 2425.82 L652.66 2425.82 L652.66 2423.22 Z" stroke-linejoin="round"/>
	</defs>
	<defs>
		<clipPath id="clipPath_sfSjCrRe">
			<use xlink:href="#path_HzbwZMDD"/>
		</clipPath>
	</defs>
	<use xlink:href="#path_HzbwZMDD" style="stroke:none;fill:#FF9933;fill-opacity:0.50"/>
	<use xlink:href="#path_HzbwZMDD" style="fill:none;stroke:#FF7F00;stroke-opacity:0.50;stroke-width:17.28" clip-path="url(#clipPath_sfSjCrRe)"/>
	<defs>
		<path id="path_ueAfVXaB" d="M800.41 2394.02 L800.41 2394.02 L828.38 2370.38 L856.35 2326.57 L884.32 2266.06 L912.28 2137.11 L940.25 1971.52 L968.22 1771.29 L996.19 1559.30 L1024.28 1359.81 L1052.25 1207.59 L1080.21 1030.99 L1108.18 883.85 L1136.15 800.94 L1164.12 727.92 L1192.08 687.58 L1220.05 630.28 L1248.02 626.94 L1276.11 644.02 L1304.08 702.80 L1332.05 846.48 L1360.01 962.43 L1387.98 1084.70 L1415.95 1248.80 L1443.91 1388.15 L1471.88 1520.69 L1499.97 1642.34 L1527.94 1784.65 L1555.91 1890.34 L1583.88 1996.89 L1611.84 2105.30 L1639.81 2198.36 L1667.78 2261.60 L1695.75 2317.29 L1723.71 2349.59 L1751.81 2375.83 L1779.77 2394.14 L1807.74 2395.13 L1835.71 2398.72 L1863.67 2405.03 L1891.64 2413.94 L1919.61 2425.58 L1947.58 2425.82 L1975.55 2425.08 L2003.64 2413.57 L2031.60 2404.66 L2059.57 2398.47 L2087.54 2395.01 L2115.51 2394.14 L2143.47 2396.00 L2171.44 2400.45 L2171.44 2425.82 L2143.47 2425.82 L2115.51 2425.82 L2087.54 2425.82 L2059.57 2425.82 L2031.60 2425.82 L2003.64 2425.82 L1975.55 2425.82 L1947.58 2425.82 L1919.61 2425.82 L1891.64 2425.82 L1863.67 2425.82 L1835.71 2425.82 L1807.74 2425.82 L1779.77 2425.82 L1751.81 2425.82 L1723.71 2425.82 L1695.75 2425.82 L1667.78 2425.82 L1639.81 2425.82 L1611.84 2425.82 L1583.88 2425.82 L1555.91 2425.82 L1527.94 2425.82 L1499.97 2425.82 L1471.88 2425.82 L1443.91 2425.82 L1415.95 2425.82 L1387.98 2425.82 L1360.01 2425.82 L1332.05 2425.82 L1304.08 2425.82 L1276.11 2425.82 L1248.02 2425.82 L1220.05 2425.82 L1192.08 2425.82 L1164.12 2425.82 L1136.15 2425.82 L1108.18 2425.82 L1080.21 2425.82 L1052.25 2425.82 L1024.28 2425.82 L996.19 2425.82 L968.22 2425.82 L940.25 2425.82 L912.28 2425.82 L884.32 2425.82 L856.35 2425.82 L828.38 2425.82 L800.41 2425.82 L800.41 2394.02 Z" stroke-linejoin="round"/>
	</defs>
	<defs>
		<clipPath id="clipPath_IjtPprue">
			<use xlink:href="#path_ueAfVXaB"/>
		</clipPath>
	</defs>
	<use xlink:href="#path_ueAfVXaB" style="stroke:none;fill:#FF3333;fill-opacity:0.50"/>
	<use xlink:href="#path_ueAfVXaB" style="fill:none;stroke:#FF0000;stroke-opacity:0.50;stroke-width:17.28" clip-path="url(#clipPath_IjtPprue)"/>
	<defs>
		<path id="path_vZsYfCqQ" d="M517.89 2394.02 L517.89 2394.02 L549.33 2370.38 L580.76 2326.57 L612.19 2266.06 L643.50 2137.11 L674.93 1971.52 L706.37 1771.29 L737.80 1559.30 L769.23 1359.81 L800.54 1207.59 L831.97 1030.99 L863.40 883.85 L894.84 800.94 L926.27 727.92 L957.58 687.58 L989.01 630.28 L1020.44 626.94 L1051.88 644.02 L1083.31 702.80 L1114.62 846.48 L1146.05 962.43 L1177.48 1084.70 L1208.91 1248.80 L1240.35 1388.15 L1271.65 1520.69 L1303.09 1642.34 L1334.52 1784.65 L1365.95 1890.34 L1397.26 1996.89 L1428.69 2105.30 L1460.13 2198.36 L1491.56 2261.60 L1522.99 2317.29 L1554.30 2349.59 L1585.73 2375.83 L1617.16 2394.14 L1648.60 2395.13 L1680.03 2398.72 L1711.34 2405.03 L1742.77 2413.94 L1774.20 2425.58 L1805.64 2425.82 L1837.07 2425.08 L1868.38 2413.57 L1899.81 2404.66 L1931.24 2398.47 L1962.67 2395.01 L1993.98 2394.14 L2025.42 2396.00 L2056.85 2400.45 L2056.85 2425.82 L2025.42 2425.82 L1993.98 2425.82 L1962.67 2425.82 L1931.24 2425.82 L1899.81 2425.82 L1868.38 2425.82 L1837.07 2425.82 L1805.64 2425.82 L1774.20 2425.82 L1742.77 2425.82 L1711.34 2425.82 L1680.03 2425.82 L1648.60 2425.82 L1617.16 2425.82 L1585.73 2425.82 L1554.30 2425.82 L1522.99 2425.82 L1491.56 2425.82 L1460.13 2425.82 L1428.69 2425.82 L1397.26 2425.82 L1365.95 2425.82 L1334.52 2425.82 L1303.09 2425.82 L1271.65 2425.82 L1240.35 2425.82 L1208.91 2425.82 L1177.48 2425.82 L1146.05 2425.82 L1114.62 2425.82 L1083.31 2425.82 L1051.88 2425.82 L1020.44 2425.82 L989.01 2425.82 L957.58 2425.82 L926.27 2425.82 L894.84 2425.82 L863.40 2425.82 L831.97 2425.82 L800.54 2425.82 L769.23 2425.82 L737.80 2425.82 L706.37 2425.82 L674.93 2425.82 L643.50 2425.82 L612.19 2425.82 L580.76 2425.82 L549.33 2425.82 L517.89 2425.82 L517.89 2394.02 Z" stroke-linejoin="round"/>
	</defs>
	<defs>
		<clipPath id="clipPath_AfBudzSJ">
			<use xlink:href="#path_vZsYfCqQ"/>
		</clipPath>
	</defs>
	<use xlink:href="#path_vZsYfCqQ" style="stroke:none;fill:#339933;fill-opacity:0.50"/>
	<use xlink:href="#path_vZsYfCqQ" style="fill:none;stroke:#008000;stroke-opacity:0.50;stroke-width:17.28" clip-path="url(#clipPath_AfBudzSJ)"/>
	<line x1="390.80" y1="2489.19" x2="390.80" y2="275.35" style="stroke:#000000;stroke-width:5.76"/>
	<line x1="390.80" y1="2425.82" x2="350.83" y2="2425.82" style="stroke:#000000;stroke-width:5.76"/>
	<text x="300.72" y="2425.82" style="font-family:'Helvetica';font-size:99.99px;fill:#000000" transform="rotate(-90 300.72,2425.82)" text-anchor="middle">0</text>
	<line x1="390.80" y1="1904.08" x2="350.83" y2="1904.08" style="stroke:#000000;stroke-width:5.76"/>
	<text x="300.72" y="1904.08" style="font-family:'Helvetica';font-size:99.99px;fill:#000000" transform="rotate(-90 300.72,1904.08)" text-anchor="middle">.2</text>
	<line x1="390.80" y1="1382.33" x2="350.83" y2="1382.33" style="stroke:#000000;stroke-width:5.76"/>
	<text x="300.72" y="1382.33" style="font-family:'Helvetica';font-size:99.99px;fill:#000000" transform="rotate(-90 300.72,1382.33)" text-anchor="middle">.4</text>
	<line x1="390.80" y1="860.46" x2="350.83" y2="860.46" style="stroke:#000000;stroke-width:5.76"/>
	<text x="300.72" y="860.46" style="font-family:'Helvetica';font-size:99.99px;fill:#000000" transform="rotate(-90 300.72,860.46)" text-anchor="middle">.6</text>
	<line x1="390.80" y1="338.71" x2="350.83" y2="338.71" style="stroke:#000000;stroke-width:5.76"/>
	<text x="300.72" y="338.71" style="font-family:'Helvetica';font-size:99.99px;fill:#000000" transform="rotate(-90 300.72,338.71)" text-anchor="middle">.8</text>
	<text x="190.71" y="1382.33" style="font-family:'Helvetica';font-size:99.99px;fill:#000000" transform="rotate(-90 190.71,1382.33)" text-anchor="middle">Smoothed density</text>
	<line x1="390.80" y1="2489.19" x2="3859.02" y2="2489.19" style="stroke:#000000;stroke-width:5.76"/>
	<line x1="454.16" y1="2489.19" x2="454.16" y2="2529.16" style="stroke:#000000;stroke-width:5.76"/>
	<text x="454.16" y="2619.14" style="font-family:'Helvetica';font-size:99.99px;fill:#000000" text-anchor="middle">2</text>
	<line x1="1122.41" y1="2489.19" x2="1122.41" y2="2529.16" style="stroke:#000000;stroke-width:5.76"/>
	<text x="1122.41" y="2619.14" style="font-family:'Helvetica';font-size:99.99px;fill:#000000" text-anchor="middle">4</text>
	<line x1="1790.79" y1="2489.19" x2="1790.79" y2="2529.16" style="stroke:#000000;stroke-width:5.76"/>
	<text x="1790.79" y="2619.14" style="font-family:'Helvetica';font-size:99.99px;fill:#000000" text-anchor="middle">6</text>
	<line x1="2459.04" y1="2489.19" x2="2459.04" y2="2529.16" style="stroke:#000000;stroke-width:5.76"/>
	<text x="2459.04" y="2619.14" style="font-family:'Helvetica';font-size:99.99px;fill:#000000" text-anchor="middle">8</text>
	<line x1="3127.41" y1="2489.19" x2="3127.41" y2="2529.16" style="stroke:#000000;stroke-width:5.76"/>
	<text x="3127.41" y="2619.14" style="font-family:'Helvetica';font-size:99.99px;fill:#000000" text-anchor="middle">10</text>
	<line x1="3795.66" y1="2489.19" x2="3795.66" y2="2529.16" style="stroke:#000000;stroke-width:5.76"/>
	<text x="3795.66" y="2619.14" style="font-family:'Helvetica';font-size:99.99px;fill:#000000" text-anchor="middle">12</text>
	<text x="2124.91" y="2729.16" style="font-family:'Helvetica';font-size:99.99px;fill:#000000" text-anchor="middle">ln(Price)</text>
	<rect x="3119.99" y="309.88" width="704.51" height="746.48" style="fill:#FFFFFF"/>
	<rect x="3122.86" y="312.76" width="698.75" height="740.72" style="fill:none;stroke:#000000;stroke-width:5.76"/>
	<rect x="3163.17" y="353.07" width="374.47" height="99.99" style="fill:#3333FF;fill-opacity:0.50"/>
	<rect x="3167.49" y="357.39" width="365.83" height="91.35" style="fill:none;stroke:#0000FF;stroke-opacity:0.50;stroke-width:8.64"/>
	<rect x="3163.17" y="493.16" width="374.47" height="99.99" style="fill:#993399;fill-opacity:0.50"/>
	<rect x="3167.49" y="497.48" width="365.83" height="91.35" style="fill:none;stroke:#800080;stroke-opacity:0.50;stroke-width:8.64"/>
	<rect x="3163.17" y="633.12" width="374.47" height="99.99" style="fill:#FF9933;fill-opacity:0.50"/>
	<rect x="3167.49" y="637.44" width="365.83" height="91.35" style="fill:none;stroke:#FF7F00;stroke-opacity:0.50;stroke-width:8.64"/>
	<rect x="3163.17" y="773.09" width="374.47" height="99.99" style="fill:#FF3333;fill-opacity:0.50"/>
	<rect x="3167.49" y="777.41" width="365.83" height="91.35" style="fill:none;stroke:#FF0000;stroke-opacity:0.50;stroke-width:8.64"/>
	<rect x="3163.17" y="913.06" width="374.47" height="99.99" style="fill:#339933;fill-opacity:0.50"/>
	<rect x="3167.49" y="917.38" width="365.83" height="91.35" style="fill:none;stroke:#008000;stroke-opacity:0.50;stroke-width:8.64"/>
	<text x="3597.54" y="438.09" style="font-family:'Helvetica';font-size:99.99px;fill:#000000">Bal</text>
	<text x="3597.54" y="578.18" style="font-family:'Helvetica';font-size:99.99px;fill:#000000">Dal</text>
	<text x="3597.54" y="718.15" style="font-family:'Helvetica';font-size:99.99px;fill:#000000">LA</text>
	<text x="3597.54" y="858.12" style="font-family:'Helvetica';font-size:99.99px;fill:#000000">S-L</text>
	<text x="3597.54" y="998.08" style="font-family:'Helvetica';font-size:99.99px;fill:#000000">Was</text>
	<text x="2124.91" y="215.98" style="font-family:'Helvetica';font-size:139.96px;fill:#1E2D53" text-anchor="middle">January Temperatures by Region</text>
</svg>
