<?xml version="1.0" encoding="UTF-8" standalone="no"?>
<!-- This is a Stata 16.1 generated SVG file (http://www.stata.com) -->

<svg version="1.1" width="5.50in" height="4.00in" viewBox="0 0 3960 2880" xmlns="http://www.w3.org/2000/svg" xmlns:xlink="http://www.w3.org/1999/xlink">
	<desc>Stata Graph - graph1</desc>
	<rect x="0" y="0" width="3960" height="2880" style="fill:#EAF2F3;stroke:none"/>
	<rect x="0.00" y="0.00" width="3959.88" height="2880.00" style="fill:#FFFFFF"/>
	<rect x="2.88" y="2.88" width="3954.12" height="2874.24" style="fill:none;stroke:#EAF2F3;stroke-width:5.76"/>
	<rect x="100.86" y="429.80" width="3758.16" height="1600.01" style="fill:#FFFFFF"/>
	<rect x="103.16" y="432.10" width="3753.56" height="1595.41" style="fill:none;stroke:#FFFFFF;stroke-width:4.61"/>
	<line x1="181.42" y1="2029.81" x2="181.42" y2="429.80" style="stroke:#EAF2F3;stroke-width:6.91"/>
	<line x1="900.78" y1="2029.81" x2="900.78" y2="429.80" style="stroke:#EAF2F3;stroke-width:6.91"/>
	<line x1="1620.26" y1="2029.81" x2="1620.26" y2="429.80" style="stroke:#EAF2F3;stroke-width:6.91"/>
	<line x1="2339.62" y1="2029.81" x2="2339.62" y2="429.80" style="stroke:#EAF2F3;stroke-width:6.91"/>
	<line x1="3059.10" y1="2029.81" x2="3059.10" y2="429.80" style="stroke:#EAF2F3;stroke-width:6.91"/>
	<line x1="3778.46" y1="2029.81" x2="3778.46" y2="429.80" style="stroke:#EAF2F3;stroke-width:6.91"/>
	<rect x="990.25" y="1834.40" width="264.45" height="95.66" style="fill:#CBDBD8"/>
	<rect x="993.70" y="1837.86" width="257.54" height="88.75" style="fill:none;stroke:#97B6B0;stroke-width:6.91"/>
	<line x1="1114.86" y1="1930.07" x2="1114.86" y2="1834.40" style="stroke:#97B6B0;stroke-width:6.91"/>
	<line x1="990.25" y1="1882.30" x2="660.58" y2="1882.30" style="stroke:#97B6B0;stroke-width:6.91"/>
	<line x1="1254.70" y1="1882.30" x2="1638.94" y2="1882.30" style="stroke:#97B6B0;stroke-width:6.91"/>
	<line x1="660.58" y1="1914.35" x2="660.58" y2="1850.24" style="stroke:#97B6B0;stroke-width:6.91"/>
	<line x1="1638.94" y1="1914.35" x2="1638.94" y2="1850.24" style="stroke:#97B6B0;stroke-width:6.91"/>
	<rect x="886.30" y="1707.18" width="312.47" height="95.66" style="fill:#F1BF80"/>
	<rect x="889.75" y="1710.64" width="305.56" height="88.75" style="fill:none;stroke:#E37E00;stroke-width:6.91"/>
	<line x1="1060.04" y1="1802.85" x2="1060.04" y2="1707.18" style="stroke:#E37E00;stroke-width:6.91"/>
	<line x1="886.30" y1="1755.08" x2="619.86" y2="1755.08" style="stroke:#E37E00;stroke-width:6.91"/>
	<line x1="1198.77" y1="1755.08" x2="1612.59" y2="1755.08" style="stroke:#E37E00;stroke-width:6.91"/>
	<line x1="619.86" y1="1787.13" x2="619.86" y2="1723.03" style="stroke:#E37E00;stroke-width:6.91"/>
	<line x1="1612.59" y1="1787.13" x2="1612.59" y2="1723.03" style="stroke:#E37E00;stroke-width:6.91"/>
	<rect x="1038.26" y="1579.97" width="281.53" height="95.66" style="fill:#D6ECF3"/>
	<rect x="1041.72" y="1583.42" width="274.62" height="88.75" style="fill:none;stroke:#ADD8E6;stroke-width:6.91"/>
	<line x1="1168.82" y1="1675.63" x2="1168.82" y2="1579.97" style="stroke:#ADD8E6;stroke-width:6.91"/>
	<line x1="1038.26" y1="1627.73" x2="619.86" y2="1627.73" style="stroke:#ADD8E6;stroke-width:6.91"/>
	<line x1="1319.79" y1="1627.73" x2="1731.76" y2="1627.73" style="stroke:#ADD8E6;stroke-width:6.91"/>
	<line x1="619.86" y1="1659.79" x2="619.86" y2="1595.68" style="stroke:#ADD8E6;stroke-width:6.91"/>
	<line x1="1731.76" y1="1659.79" x2="1731.76" y2="1595.68" style="stroke:#ADD8E6;stroke-width:6.91"/>
	<rect x="928.74" y="1452.75" width="255.30" height="95.66" style="fill:#F5FFD5"/>
	<rect x="932.20" y="1456.20" width="248.38" height="88.75" style="fill:none;stroke:#EAFFAA;stroke-width:6.91"/>
	<line x1="1024.53" y1="1548.41" x2="1024.53" y2="1452.75" style="stroke:#EAFFAA;stroke-width:6.91"/>
	<line x1="928.74" y1="1500.52" x2="673.20" y2="1500.52" style="stroke:#EAFFAA;stroke-width:6.91"/>
	<line x1="1184.04" y1="1500.52" x2="1557.64" y2="1500.52" style="stroke:#EAFFAA;stroke-width:6.91"/>
	<line x1="673.20" y1="1532.57" x2="673.20" y2="1468.46" style="stroke:#EAFFAA;stroke-width:6.91"/>
	<line x1="1557.64" y1="1532.57" x2="1557.64" y2="1468.46" style="stroke:#EAFFAA;stroke-width:6.91"/>
	<rect x="934.81" y="1325.53" width="302.20" height="95.66" style="fill:#E0829A"/>
	<rect x="938.26" y="1328.98" width="295.29" height="88.75" style="fill:none;stroke:#C10534;stroke-width:6.91"/>
	<line x1="1066.35" y1="1421.19" x2="1066.35" y2="1325.53" style="stroke:#C10534;stroke-width:6.91"/>
	<line x1="934.81" y1="1373.30" x2="557.12" y2="1373.30" style="stroke:#C10534;stroke-width:6.91"/>
	<line x1="1237.01" y1="1373.30" x2="1659.49" y2="1373.30" style="stroke:#C10534;stroke-width:6.91"/>
	<line x1="557.12" y1="1405.35" x2="557.12" y2="1341.24" style="stroke:#C10534;stroke-width:6.91"/>
	<line x1="1659.49" y1="1405.35" x2="1659.49" y2="1341.24" style="stroke:#C10534;stroke-width:6.91"/>
	<rect x="990.25" y="1038.42" width="271.76" height="95.66" style="fill:#CBDBD8"/>
	<rect x="993.70" y="1041.87" width="264.84" height="88.75" style="fill:none;stroke:#97B6B0;stroke-width:6.91"/>
	<line x1="1114.86" y1="1134.08" x2="1114.86" y2="1038.42" style="stroke:#97B6B0;stroke-width:6.91"/>
	<line x1="990.25" y1="1086.31" x2="619.86" y2="1086.31" style="stroke:#97B6B0;stroke-width:6.91"/>
	<line x1="1262.00" y1="1086.31" x2="1663.45" y2="1086.31" style="stroke:#97B6B0;stroke-width:6.91"/>
	<line x1="619.86" y1="1118.36" x2="619.86" y2="1054.26" style="stroke:#97B6B0;stroke-width:6.91"/>
	<line x1="1663.45" y1="1118.36" x2="1663.45" y2="1054.26" style="stroke:#97B6B0;stroke-width:6.91"/>
	<rect x="903.50" y="911.20" width="246.02" height="95.66" style="fill:#F1BF80"/>
	<rect x="906.95" y="914.66" width="239.10" height="88.75" style="fill:none;stroke:#E37E00;stroke-width:6.91"/>
	<line x1="1015.00" y1="1006.86" x2="1015.00" y2="911.20" style="stroke:#E37E00;stroke-width:6.91"/>
	<line x1="903.50" y1="959.09" x2="685.45" y2="959.09" style="stroke:#E37E00;stroke-width:6.91"/>
	<line x1="1149.51" y1="959.09" x2="1448.12" y2="959.09" style="stroke:#E37E00;stroke-width:6.91"/>
	<line x1="685.45" y1="991.14" x2="685.45" y2="927.04" style="stroke:#E37E00;stroke-width:6.91"/>
	<line x1="1448.12" y1="991.14" x2="1448.12" y2="927.04" style="stroke:#E37E00;stroke-width:6.91"/>
	<rect x="1060.04" y="783.98" width="307.77" height="95.66" style="fill:#D6ECF3"/>
	<rect x="1063.50" y="787.44" width="300.85" height="88.75" style="fill:none;stroke:#ADD8E6;stroke-width:6.91"/>
	<line x1="1226.49" y1="879.64" x2="1226.49" y2="783.98" style="stroke:#ADD8E6;stroke-width:6.91"/>
	<line x1="1060.04" y1="831.87" x2="619.86" y2="831.87" style="stroke:#ADD8E6;stroke-width:6.91"/>
	<line x1="1367.81" y1="831.87" x2="1818.51" y2="831.87" style="stroke:#ADD8E6;stroke-width:6.91"/>
	<line x1="619.86" y1="863.93" x2="619.86" y2="799.82" style="stroke:#ADD8E6;stroke-width:6.91"/>
	<line x1="1818.51" y1="863.93" x2="1818.51" y2="799.82" style="stroke:#ADD8E6;stroke-width:6.91"/>
	<rect x="934.81" y="656.76" width="317.42" height="95.66" style="fill:#F5FFD5"/>
	<rect x="938.26" y="660.22" width="310.51" height="88.75" style="fill:none;stroke:#EAFFAA;stroke-width:6.91"/>
	<line x1="1042.72" y1="752.42" x2="1042.72" y2="656.76" style="stroke:#EAFFAA;stroke-width:6.91"/>
	<line x1="934.81" y1="704.53" x2="619.86" y2="704.53" style="stroke:#EAFFAA;stroke-width:6.91"/>
	<line x1="1252.23" y1="704.53" x2="1725.08" y2="704.53" style="stroke:#EAFFAA;stroke-width:6.91"/>
	<line x1="619.86" y1="736.58" x2="619.86" y2="672.48" style="stroke:#EAFFAA;stroke-width:6.91"/>
	<line x1="1725.08" y1="736.58" x2="1725.08" y2="672.48" style="stroke:#EAFFAA;stroke-width:6.91"/>
	<rect x="934.81" y="529.54" width="275.34" height="95.66" style="fill:#E0829A"/>
	<rect x="938.26" y="533.00" width="268.43" height="88.75" style="fill:none;stroke:#C10534;stroke-width:6.91"/>
	<line x1="1038.26" y1="625.20" x2="1038.26" y2="529.54" style="stroke:#C10534;stroke-width:6.91"/>
	<line x1="934.81" y1="577.31" x2="685.45" y2="577.31" style="stroke:#C10534;stroke-width:6.91"/>
	<line x1="1210.15" y1="577.31" x2="1616.30" y2="577.31" style="stroke:#C10534;stroke-width:6.91"/>
	<line x1="685.45" y1="609.36" x2="685.45" y2="545.26" style="stroke:#C10534;stroke-width:6.91"/>
	<line x1="1616.30" y1="609.36" x2="1616.30" y2="545.26" style="stroke:#C10534;stroke-width:6.91"/>
	<circle cx="290.32" cy="1882.30" r="9.40" style="fill:#6E8E84"/>
	<circle cx="290.32" cy="1882.30" r="5.94" style="fill:none;stroke:#6E8E84;stroke-width:6.91"/>
	<circle cx="573.83" cy="1882.30" r="9.40" style="fill:#6E8E84"/>
	<circle cx="573.83" cy="1882.30" r="5.94" style="fill:none;stroke:#6E8E84;stroke-width:6.91"/>
	<circle cx="589.92" cy="1882.30" r="9.40" style="fill:#6E8E84"/>
	<circle cx="589.92" cy="1882.30" r="5.94" style="fill:none;stroke:#6E8E84;stroke-width:6.91"/>
	<circle cx="1659.49" cy="1882.30" r="9.40" style="fill:#6E8E84"/>
	<circle cx="1659.49" cy="1882.30" r="5.94" style="fill:none;stroke:#6E8E84;stroke-width:6.91"/>
	<circle cx="1679.04" cy="1882.30" r="9.40" style="fill:#6E8E84"/>
	<circle cx="1679.04" cy="1882.30" r="5.94" style="fill:none;stroke:#6E8E84;stroke-width:6.91"/>
	<circle cx="1679.04" cy="1882.30" r="9.40" style="fill:#6E8E84"/>
	<circle cx="1679.04" cy="1882.30" r="5.94" style="fill:none;stroke:#6E8E84;stroke-width:6.91"/>
	<circle cx="1696.74" cy="1882.30" r="9.40" style="fill:#6E8E84"/>
	<circle cx="1696.74" cy="1882.30" r="5.94" style="fill:none;stroke:#6E8E84;stroke-width:6.91"/>
	<circle cx="1697.48" cy="1882.30" r="9.40" style="fill:#6E8E84"/>
	<circle cx="1697.48" cy="1882.30" r="5.94" style="fill:none;stroke:#6E8E84;stroke-width:6.91"/>
	<circle cx="1708.12" cy="1882.30" r="9.40" style="fill:#6E8E84"/>
	<circle cx="1708.12" cy="1882.30" r="5.94" style="fill:none;stroke:#6E8E84;stroke-width:6.91"/>
	<circle cx="1759.97" cy="1882.30" r="9.40" style="fill:#6E8E84"/>
	<circle cx="1759.97" cy="1882.30" r="5.94" style="fill:none;stroke:#6E8E84;stroke-width:6.91"/>
	<circle cx="1763.07" cy="1882.30" r="9.40" style="fill:#6E8E84"/>
	<circle cx="1763.07" cy="1882.30" r="5.94" style="fill:none;stroke:#6E8E84;stroke-width:6.91"/>
	<circle cx="1791.78" cy="1882.30" r="9.40" style="fill:#6E8E84"/>
	<circle cx="1791.78" cy="1882.30" r="5.94" style="fill:none;stroke:#6E8E84;stroke-width:6.91"/>
	<circle cx="1791.78" cy="1882.30" r="9.40" style="fill:#6E8E84"/>
	<circle cx="1791.78" cy="1882.30" r="5.94" style="fill:none;stroke:#6E8E84;stroke-width:6.91"/>
	<circle cx="1866.52" cy="1882.30" r="9.40" style="fill:#6E8E84"/>
	<circle cx="1866.52" cy="1882.30" r="5.94" style="fill:none;stroke:#6E8E84;stroke-width:6.91"/>
	<circle cx="459.36" cy="1627.73" r="9.40" style="fill:#ADD8E6"/>
	<circle cx="459.36" cy="1627.73" r="5.94" style="fill:none;stroke:#ADD8E6;stroke-width:6.91"/>
	<circle cx="1756.38" cy="1627.73" r="9.40" style="fill:#ADD8E6"/>
	<circle cx="1756.38" cy="1627.73" r="5.94" style="fill:none;stroke:#ADD8E6;stroke-width:6.91"/>
	<circle cx="1756.38" cy="1627.73" r="9.40" style="fill:#ADD8E6"/>
	<circle cx="1756.38" cy="1627.73" r="5.94" style="fill:none;stroke:#ADD8E6;stroke-width:6.91"/>
	<circle cx="1759.97" cy="1627.73" r="9.40" style="fill:#ADD8E6"/>
	<circle cx="1759.97" cy="1627.73" r="5.94" style="fill:none;stroke:#ADD8E6;stroke-width:6.91"/>
	<circle cx="1759.97" cy="1627.73" r="9.40" style="fill:#ADD8E6"/>
	<circle cx="1759.97" cy="1627.73" r="5.94" style="fill:none;stroke:#ADD8E6;stroke-width:6.91"/>
	<circle cx="1759.97" cy="1627.73" r="9.40" style="fill:#ADD8E6"/>
	<circle cx="1759.97" cy="1627.73" r="5.94" style="fill:none;stroke:#ADD8E6;stroke-width:6.91"/>
	<circle cx="1759.97" cy="1627.73" r="9.40" style="fill:#ADD8E6"/>
	<circle cx="1759.97" cy="1627.73" r="5.94" style="fill:none;stroke:#ADD8E6;stroke-width:6.91"/>
	<circle cx="1763.07" cy="1627.73" r="9.40" style="fill:#ADD8E6"/>
	<circle cx="1763.07" cy="1627.73" r="5.94" style="fill:none;stroke:#ADD8E6;stroke-width:6.91"/>
	<circle cx="1763.07" cy="1627.73" r="9.40" style="fill:#ADD8E6"/>
	<circle cx="1763.07" cy="1627.73" r="5.94" style="fill:none;stroke:#ADD8E6;stroke-width:6.91"/>
	<circle cx="1763.07" cy="1627.73" r="9.40" style="fill:#ADD8E6"/>
	<circle cx="1763.07" cy="1627.73" r="5.94" style="fill:none;stroke:#ADD8E6;stroke-width:6.91"/>
	<circle cx="1791.78" cy="1627.73" r="9.40" style="fill:#ADD8E6"/>
	<circle cx="1791.78" cy="1627.73" r="5.94" style="fill:none;stroke:#ADD8E6;stroke-width:6.91"/>
	<circle cx="1791.78" cy="1627.73" r="9.40" style="fill:#ADD8E6"/>
	<circle cx="1791.78" cy="1627.73" r="5.94" style="fill:none;stroke:#ADD8E6;stroke-width:6.91"/>
	<circle cx="1791.78" cy="1627.73" r="9.40" style="fill:#ADD8E6"/>
	<circle cx="1791.78" cy="1627.73" r="5.94" style="fill:none;stroke:#ADD8E6;stroke-width:6.91"/>
	<circle cx="1805.39" cy="1627.73" r="9.40" style="fill:#ADD8E6"/>
	<circle cx="1805.39" cy="1627.73" r="5.94" style="fill:none;stroke:#ADD8E6;stroke-width:6.91"/>
	<circle cx="1810.09" cy="1627.73" r="9.40" style="fill:#ADD8E6"/>
	<circle cx="1810.09" cy="1627.73" r="5.94" style="fill:none;stroke:#ADD8E6;stroke-width:6.91"/>
	<circle cx="1813.31" cy="1627.73" r="9.40" style="fill:#ADD8E6"/>
	<circle cx="1813.31" cy="1627.73" r="5.94" style="fill:none;stroke:#ADD8E6;stroke-width:6.91"/>
	<circle cx="1815.91" cy="1627.73" r="9.40" style="fill:#ADD8E6"/>
	<circle cx="1815.91" cy="1627.73" r="5.94" style="fill:none;stroke:#ADD8E6;stroke-width:6.91"/>
	<circle cx="1817.89" cy="1627.73" r="9.40" style="fill:#ADD8E6"/>
	<circle cx="1817.89" cy="1627.73" r="5.94" style="fill:none;stroke:#ADD8E6;stroke-width:6.91"/>
	<circle cx="1818.51" cy="1627.73" r="9.40" style="fill:#ADD8E6"/>
	<circle cx="1818.51" cy="1627.73" r="5.94" style="fill:none;stroke:#ADD8E6;stroke-width:6.91"/>
	<circle cx="1826.06" cy="1627.73" r="9.40" style="fill:#ADD8E6"/>
	<circle cx="1826.06" cy="1627.73" r="5.94" style="fill:none;stroke:#ADD8E6;stroke-width:6.91"/>
	<circle cx="1831.13" cy="1627.73" r="9.40" style="fill:#ADD8E6"/>
	<circle cx="1831.13" cy="1627.73" r="5.94" style="fill:none;stroke:#ADD8E6;stroke-width:6.91"/>
	<circle cx="1843.26" cy="1627.73" r="9.40" style="fill:#ADD8E6"/>
	<circle cx="1843.26" cy="1627.73" r="5.94" style="fill:none;stroke:#ADD8E6;stroke-width:6.91"/>
	<circle cx="1843.26" cy="1627.73" r="9.40" style="fill:#ADD8E6"/>
	<circle cx="1843.26" cy="1627.73" r="5.94" style="fill:none;stroke:#ADD8E6;stroke-width:6.91"/>
	<circle cx="1855.01" cy="1627.73" r="9.40" style="fill:#ADD8E6"/>
	<circle cx="1855.01" cy="1627.73" r="5.94" style="fill:none;stroke:#ADD8E6;stroke-width:6.91"/>
	<circle cx="1866.52" cy="1627.73" r="9.40" style="fill:#ADD8E6"/>
	<circle cx="1866.52" cy="1627.73" r="5.94" style="fill:none;stroke:#ADD8E6;stroke-width:6.91"/>
	<circle cx="1866.52" cy="1627.73" r="9.40" style="fill:#ADD8E6"/>
	<circle cx="1866.52" cy="1627.73" r="5.94" style="fill:none;stroke:#ADD8E6;stroke-width:6.91"/>
	<circle cx="1872.34" cy="1627.73" r="9.40" style="fill:#ADD8E6"/>
	<circle cx="1872.34" cy="1627.73" r="5.94" style="fill:none;stroke:#ADD8E6;stroke-width:6.91"/>
	<circle cx="1877.54" cy="1627.73" r="9.40" style="fill:#ADD8E6"/>
	<circle cx="1877.54" cy="1627.73" r="5.94" style="fill:none;stroke:#ADD8E6;stroke-width:6.91"/>
	<circle cx="1888.30" cy="1627.73" r="9.40" style="fill:#ADD8E6"/>
	<circle cx="1888.30" cy="1627.73" r="5.94" style="fill:none;stroke:#ADD8E6;stroke-width:6.91"/>
	<circle cx="1888.30" cy="1627.73" r="9.40" style="fill:#ADD8E6"/>
	<circle cx="1888.30" cy="1627.73" r="5.94" style="fill:none;stroke:#ADD8E6;stroke-width:6.91"/>
	<circle cx="1898.70" cy="1627.73" r="9.40" style="fill:#ADD8E6"/>
	<circle cx="1898.70" cy="1627.73" r="5.94" style="fill:none;stroke:#ADD8E6;stroke-width:6.91"/>
	<circle cx="1906.86" cy="1627.73" r="9.40" style="fill:#ADD8E6"/>
	<circle cx="1906.86" cy="1627.73" r="5.94" style="fill:none;stroke:#ADD8E6;stroke-width:6.91"/>
	<circle cx="1908.84" cy="1627.73" r="9.40" style="fill:#ADD8E6"/>
	<circle cx="1908.84" cy="1627.73" r="5.94" style="fill:none;stroke:#ADD8E6;stroke-width:6.91"/>
	<circle cx="1924.56" cy="1627.73" r="9.40" style="fill:#ADD8E6"/>
	<circle cx="1924.56" cy="1627.73" r="5.94" style="fill:none;stroke:#ADD8E6;stroke-width:6.91"/>
	<circle cx="1928.27" cy="1627.73" r="9.40" style="fill:#ADD8E6"/>
	<circle cx="1928.27" cy="1627.73" r="5.94" style="fill:none;stroke:#ADD8E6;stroke-width:6.91"/>
	<circle cx="1933.96" cy="1627.73" r="9.40" style="fill:#ADD8E6"/>
	<circle cx="1933.96" cy="1627.73" r="5.94" style="fill:none;stroke:#ADD8E6;stroke-width:6.91"/>
	<circle cx="1946.71" cy="1627.73" r="9.40" style="fill:#ADD8E6"/>
	<circle cx="1946.71" cy="1627.73" r="5.94" style="fill:none;stroke:#ADD8E6;stroke-width:6.91"/>
	<circle cx="1946.71" cy="1627.73" r="9.40" style="fill:#ADD8E6"/>
	<circle cx="1946.71" cy="1627.73" r="5.94" style="fill:none;stroke:#ADD8E6;stroke-width:6.91"/>
	<circle cx="1980.74" cy="1627.73" r="9.40" style="fill:#ADD8E6"/>
	<circle cx="1980.74" cy="1627.73" r="5.94" style="fill:none;stroke:#ADD8E6;stroke-width:6.91"/>
	<circle cx="1980.99" cy="1627.73" r="9.40" style="fill:#ADD8E6"/>
	<circle cx="1980.99" cy="1627.73" r="5.94" style="fill:none;stroke:#ADD8E6;stroke-width:6.91"/>
	<circle cx="1997.08" cy="1627.73" r="9.40" style="fill:#ADD8E6"/>
	<circle cx="1997.08" cy="1627.73" r="5.94" style="fill:none;stroke:#ADD8E6;stroke-width:6.91"/>
	<circle cx="2007.47" cy="1627.73" r="9.40" style="fill:#ADD8E6"/>
	<circle cx="2007.47" cy="1627.73" r="5.94" style="fill:none;stroke:#ADD8E6;stroke-width:6.91"/>
	<circle cx="2011.68" cy="1627.73" r="9.40" style="fill:#ADD8E6"/>
	<circle cx="2011.68" cy="1627.73" r="5.94" style="fill:none;stroke:#ADD8E6;stroke-width:6.91"/>
	<circle cx="2027.03" cy="1627.73" r="9.40" style="fill:#ADD8E6"/>
	<circle cx="2027.03" cy="1627.73" r="5.94" style="fill:none;stroke:#ADD8E6;stroke-width:6.91"/>
	<circle cx="2041.13" cy="1627.73" r="9.40" style="fill:#ADD8E6"/>
	<circle cx="2041.13" cy="1627.73" r="5.94" style="fill:none;stroke:#ADD8E6;stroke-width:6.91"/>
	<circle cx="2054.74" cy="1627.73" r="9.40" style="fill:#ADD8E6"/>
	<circle cx="2054.74" cy="1627.73" r="5.94" style="fill:none;stroke:#ADD8E6;stroke-width:6.91"/>
	<circle cx="2067.74" cy="1627.73" r="9.40" style="fill:#ADD8E6"/>
	<circle cx="2067.74" cy="1627.73" r="5.94" style="fill:none;stroke:#ADD8E6;stroke-width:6.91"/>
	<circle cx="2067.74" cy="1627.73" r="9.40" style="fill:#ADD8E6"/>
	<circle cx="2067.74" cy="1627.73" r="5.94" style="fill:none;stroke:#ADD8E6;stroke-width:6.91"/>
	<circle cx="2080.36" cy="1627.73" r="9.40" style="fill:#ADD8E6"/>
	<circle cx="2080.36" cy="1627.73" r="5.94" style="fill:none;stroke:#ADD8E6;stroke-width:6.91"/>
	<circle cx="2092.61" cy="1627.73" r="9.40" style="fill:#ADD8E6"/>
	<circle cx="2092.61" cy="1627.73" r="5.94" style="fill:none;stroke:#ADD8E6;stroke-width:6.91"/>
	<circle cx="2158.20" cy="1627.73" r="9.40" style="fill:#ADD8E6"/>
	<circle cx="2158.20" cy="1627.73" r="5.94" style="fill:none;stroke:#ADD8E6;stroke-width:6.91"/>
	<circle cx="2195.20" cy="1627.73" r="9.40" style="fill:#ADD8E6"/>
	<circle cx="2195.20" cy="1627.73" r="5.94" style="fill:none;stroke:#ADD8E6;stroke-width:6.91"/>
	<circle cx="2196.07" cy="1627.73" r="9.40" style="fill:#ADD8E6"/>
	<circle cx="2196.07" cy="1627.73" r="5.94" style="fill:none;stroke:#ADD8E6;stroke-width:6.91"/>
	<circle cx="2196.07" cy="1627.73" r="9.40" style="fill:#ADD8E6"/>
	<circle cx="2196.07" cy="1627.73" r="5.94" style="fill:none;stroke:#ADD8E6;stroke-width:6.91"/>
	<circle cx="2276.26" cy="1627.73" r="9.40" style="fill:#ADD8E6"/>
	<circle cx="2276.26" cy="1627.73" r="5.94" style="fill:none;stroke:#ADD8E6;stroke-width:6.91"/>
	<circle cx="2276.38" cy="1627.73" r="9.40" style="fill:#ADD8E6"/>
	<circle cx="2276.38" cy="1627.73" r="5.94" style="fill:none;stroke:#ADD8E6;stroke-width:6.91"/>
	<circle cx="2276.38" cy="1627.73" r="9.40" style="fill:#ADD8E6"/>
	<circle cx="2276.38" cy="1627.73" r="5.94" style="fill:none;stroke:#ADD8E6;stroke-width:6.91"/>
	<circle cx="2290.49" cy="1627.73" r="9.40" style="fill:#ADD8E6"/>
	<circle cx="2290.49" cy="1627.73" r="5.94" style="fill:none;stroke:#ADD8E6;stroke-width:6.91"/>
	<circle cx="2340.73" cy="1627.73" r="9.40" style="fill:#ADD8E6"/>
	<circle cx="2340.73" cy="1627.73" r="5.94" style="fill:none;stroke:#ADD8E6;stroke-width:6.91"/>
	<circle cx="2445.18" cy="1627.73" r="9.40" style="fill:#ADD8E6"/>
	<circle cx="2445.18" cy="1627.73" r="5.94" style="fill:none;stroke:#ADD8E6;stroke-width:6.91"/>
	<circle cx="539.55" cy="1500.52" r="9.40" style="fill:#EAFFAA"/>
	<circle cx="539.55" cy="1500.52" r="5.94" style="fill:none;stroke:#EAFFAA;stroke-width:6.91"/>
	<circle cx="1568.16" cy="1500.52" r="9.40" style="fill:#EAFFAA"/>
	<circle cx="1568.16" cy="1500.52" r="5.94" style="fill:none;stroke:#EAFFAA;stroke-width:6.91"/>
	<circle cx="1569.15" cy="1500.52" r="9.40" style="fill:#EAFFAA"/>
	<circle cx="1569.15" cy="1500.52" r="5.94" style="fill:none;stroke:#EAFFAA;stroke-width:6.91"/>
	<circle cx="1578.31" cy="1500.52" r="9.40" style="fill:#EAFFAA"/>
	<circle cx="1578.31" cy="1500.52" r="5.94" style="fill:none;stroke:#EAFFAA;stroke-width:6.91"/>
	<circle cx="1697.48" cy="1500.52" r="9.40" style="fill:#EAFFAA"/>
	<circle cx="1697.48" cy="1500.52" r="5.94" style="fill:none;stroke:#EAFFAA;stroke-width:6.91"/>
	<circle cx="1762.45" cy="1500.52" r="9.40" style="fill:#EAFFAA"/>
	<circle cx="1762.45" cy="1500.52" r="5.94" style="fill:none;stroke:#EAFFAA;stroke-width:6.91"/>
	<circle cx="1805.39" cy="1500.52" r="9.40" style="fill:#EAFFAA"/>
	<circle cx="1805.39" cy="1500.52" r="5.94" style="fill:none;stroke:#EAFFAA;stroke-width:6.91"/>
	<circle cx="1843.26" cy="1500.52" r="9.40" style="fill:#EAFFAA"/>
	<circle cx="1843.26" cy="1500.52" r="5.94" style="fill:none;stroke:#EAFFAA;stroke-width:6.91"/>
	<circle cx="1887.93" cy="1500.52" r="9.40" style="fill:#EAFFAA"/>
	<circle cx="1887.93" cy="1500.52" r="5.94" style="fill:none;stroke:#EAFFAA;stroke-width:6.91"/>
	<circle cx="1888.30" cy="1500.52" r="9.40" style="fill:#EAFFAA"/>
	<circle cx="1888.30" cy="1500.52" r="5.94" style="fill:none;stroke:#EAFFAA;stroke-width:6.91"/>
	<circle cx="1908.84" cy="1500.52" r="9.40" style="fill:#EAFFAA"/>
	<circle cx="1908.84" cy="1500.52" r="5.94" style="fill:none;stroke:#EAFFAA;stroke-width:6.91"/>
	<circle cx="2092.61" cy="1500.52" r="9.40" style="fill:#EAFFAA"/>
	<circle cx="2092.61" cy="1500.52" r="5.94" style="fill:none;stroke:#EAFFAA;stroke-width:6.91"/>
	<circle cx="1693.77" cy="1373.30" r="9.40" style="fill:#C10534"/>
	<circle cx="1693.77" cy="1373.30" r="5.94" style="fill:none;stroke:#C10534;stroke-width:6.91"/>
	<circle cx="1697.48" cy="1373.30" r="9.40" style="fill:#C10534"/>
	<circle cx="1697.48" cy="1373.30" r="5.94" style="fill:none;stroke:#C10534;stroke-width:6.91"/>
	<circle cx="1763.07" cy="1373.30" r="9.40" style="fill:#C10534"/>
	<circle cx="1763.07" cy="1373.30" r="5.94" style="fill:none;stroke:#C10534;stroke-width:6.91"/>
	<circle cx="1763.07" cy="1373.30" r="9.40" style="fill:#C10534"/>
	<circle cx="1763.07" cy="1373.30" r="5.94" style="fill:none;stroke:#C10534;stroke-width:6.91"/>
	<circle cx="1941.27" cy="1373.30" r="9.40" style="fill:#C10534"/>
	<circle cx="1941.27" cy="1373.30" r="5.94" style="fill:none;stroke:#C10534;stroke-width:6.91"/>
	<circle cx="557.12" cy="1086.31" r="9.40" style="fill:#6E8E84"/>
	<circle cx="557.12" cy="1086.31" r="5.94" style="fill:none;stroke:#6E8E84;stroke-width:6.91"/>
	<circle cx="573.83" cy="1086.31" r="9.40" style="fill:#6E8E84"/>
	<circle cx="573.83" cy="1086.31" r="5.94" style="fill:none;stroke:#6E8E84;stroke-width:6.91"/>
	<circle cx="1679.04" cy="1086.31" r="9.40" style="fill:#6E8E84"/>
	<circle cx="1679.04" cy="1086.31" r="5.94" style="fill:none;stroke:#6E8E84;stroke-width:6.91"/>
	<circle cx="1693.77" cy="1086.31" r="9.40" style="fill:#6E8E84"/>
	<circle cx="1693.77" cy="1086.31" r="5.94" style="fill:none;stroke:#6E8E84;stroke-width:6.91"/>
	<circle cx="1695.25" cy="1086.31" r="9.40" style="fill:#6E8E84"/>
	<circle cx="1695.25" cy="1086.31" r="5.94" style="fill:none;stroke:#6E8E84;stroke-width:6.91"/>
	<circle cx="1696.74" cy="1086.31" r="9.40" style="fill:#6E8E84"/>
	<circle cx="1696.74" cy="1086.31" r="5.94" style="fill:none;stroke:#6E8E84;stroke-width:6.91"/>
	<circle cx="1697.48" cy="1086.31" r="9.40" style="fill:#6E8E84"/>
	<circle cx="1697.48" cy="1086.31" r="5.94" style="fill:none;stroke:#6E8E84;stroke-width:6.91"/>
	<circle cx="1697.48" cy="1086.31" r="9.40" style="fill:#6E8E84"/>
	<circle cx="1697.48" cy="1086.31" r="5.94" style="fill:none;stroke:#6E8E84;stroke-width:6.91"/>
	<circle cx="1697.48" cy="1086.31" r="9.40" style="fill:#6E8E84"/>
	<circle cx="1697.48" cy="1086.31" r="5.94" style="fill:none;stroke:#6E8E84;stroke-width:6.91"/>
	<circle cx="1697.48" cy="1086.31" r="9.40" style="fill:#6E8E84"/>
	<circle cx="1697.48" cy="1086.31" r="5.94" style="fill:none;stroke:#6E8E84;stroke-width:6.91"/>
	<circle cx="1697.48" cy="1086.31" r="9.40" style="fill:#6E8E84"/>
	<circle cx="1697.48" cy="1086.31" r="5.94" style="fill:none;stroke:#6E8E84;stroke-width:6.91"/>
	<circle cx="1731.02" cy="1086.31" r="9.40" style="fill:#6E8E84"/>
	<circle cx="1731.02" cy="1086.31" r="5.94" style="fill:none;stroke:#6E8E84;stroke-width:6.91"/>
	<circle cx="1731.02" cy="1086.31" r="9.40" style="fill:#6E8E84"/>
	<circle cx="1731.02" cy="1086.31" r="5.94" style="fill:none;stroke:#6E8E84;stroke-width:6.91"/>
	<circle cx="1731.76" cy="1086.31" r="9.40" style="fill:#6E8E84"/>
	<circle cx="1731.76" cy="1086.31" r="5.94" style="fill:none;stroke:#6E8E84;stroke-width:6.91"/>
	<circle cx="1763.07" cy="1086.31" r="9.40" style="fill:#6E8E84"/>
	<circle cx="1763.07" cy="1086.31" r="5.94" style="fill:none;stroke:#6E8E84;stroke-width:6.91"/>
	<circle cx="1763.07" cy="1086.31" r="9.40" style="fill:#6E8E84"/>
	<circle cx="1763.07" cy="1086.31" r="5.94" style="fill:none;stroke:#6E8E84;stroke-width:6.91"/>
	<circle cx="1805.39" cy="1086.31" r="9.40" style="fill:#6E8E84"/>
	<circle cx="1805.39" cy="1086.31" r="5.94" style="fill:none;stroke:#6E8E84;stroke-width:6.91"/>
	<circle cx="1807.99" cy="1086.31" r="9.40" style="fill:#6E8E84"/>
	<circle cx="1807.99" cy="1086.31" r="5.94" style="fill:none;stroke:#6E8E84;stroke-width:6.91"/>
	<circle cx="1818.51" cy="1086.31" r="9.40" style="fill:#6E8E84"/>
	<circle cx="1818.51" cy="1086.31" r="5.94" style="fill:none;stroke:#6E8E84;stroke-width:6.91"/>
	<circle cx="1857.36" cy="1086.31" r="9.40" style="fill:#6E8E84"/>
	<circle cx="1857.36" cy="1086.31" r="5.94" style="fill:none;stroke:#6E8E84;stroke-width:6.91"/>
	<circle cx="1866.52" cy="1086.31" r="9.40" style="fill:#6E8E84"/>
	<circle cx="1866.52" cy="1086.31" r="5.94" style="fill:none;stroke:#6E8E84;stroke-width:6.91"/>
	<circle cx="1866.52" cy="1086.31" r="9.40" style="fill:#6E8E84"/>
	<circle cx="1866.52" cy="1086.31" r="5.94" style="fill:none;stroke:#6E8E84;stroke-width:6.91"/>
	<circle cx="1964.28" cy="959.09" r="9.40" style="fill:#E37E00"/>
	<circle cx="1964.28" cy="959.09" r="5.94" style="fill:none;stroke:#E37E00;stroke-width:6.91"/>
	<circle cx="539.55" cy="831.87" r="9.40" style="fill:#ADD8E6"/>
	<circle cx="539.55" cy="831.87" r="5.94" style="fill:none;stroke:#ADD8E6;stroke-width:6.91"/>
	<circle cx="573.83" cy="831.87" r="9.40" style="fill:#ADD8E6"/>
	<circle cx="573.83" cy="831.87" r="5.94" style="fill:none;stroke:#ADD8E6;stroke-width:6.91"/>
	<circle cx="1843.26" cy="831.87" r="9.40" style="fill:#ADD8E6"/>
	<circle cx="1843.26" cy="831.87" r="5.94" style="fill:none;stroke:#ADD8E6;stroke-width:6.91"/>
	<circle cx="1843.26" cy="831.87" r="9.40" style="fill:#ADD8E6"/>
	<circle cx="1843.26" cy="831.87" r="5.94" style="fill:none;stroke:#ADD8E6;stroke-width:6.91"/>
	<circle cx="1843.26" cy="831.87" r="9.40" style="fill:#ADD8E6"/>
	<circle cx="1843.26" cy="831.87" r="5.94" style="fill:none;stroke:#ADD8E6;stroke-width:6.91"/>
	<circle cx="1843.26" cy="831.87" r="9.40" style="fill:#ADD8E6"/>
	<circle cx="1843.26" cy="831.87" r="5.94" style="fill:none;stroke:#ADD8E6;stroke-width:6.91"/>
	<circle cx="1843.26" cy="831.87" r="9.40" style="fill:#ADD8E6"/>
	<circle cx="1843.26" cy="831.87" r="5.94" style="fill:none;stroke:#ADD8E6;stroke-width:6.91"/>
	<circle cx="1852.79" cy="831.87" r="9.40" style="fill:#ADD8E6"/>
	<circle cx="1852.79" cy="831.87" r="5.94" style="fill:none;stroke:#ADD8E6;stroke-width:6.91"/>
	<circle cx="1854.15" cy="831.87" r="9.40" style="fill:#ADD8E6"/>
	<circle cx="1854.15" cy="831.87" r="5.94" style="fill:none;stroke:#ADD8E6;stroke-width:6.91"/>
	<circle cx="1855.01" cy="831.87" r="9.40" style="fill:#ADD8E6"/>
	<circle cx="1855.01" cy="831.87" r="5.94" style="fill:none;stroke:#ADD8E6;stroke-width:6.91"/>
	<circle cx="1864.29" cy="831.87" r="9.40" style="fill:#ADD8E6"/>
	<circle cx="1864.29" cy="831.87" r="5.94" style="fill:none;stroke:#ADD8E6;stroke-width:6.91"/>
	<circle cx="1866.03" cy="831.87" r="9.40" style="fill:#ADD8E6"/>
	<circle cx="1866.03" cy="831.87" r="5.94" style="fill:none;stroke:#ADD8E6;stroke-width:6.91"/>
	<circle cx="1866.52" cy="831.87" r="9.40" style="fill:#ADD8E6"/>
	<circle cx="1866.52" cy="831.87" r="5.94" style="fill:none;stroke:#ADD8E6;stroke-width:6.91"/>
	<circle cx="1866.52" cy="831.87" r="9.40" style="fill:#ADD8E6"/>
	<circle cx="1866.52" cy="831.87" r="5.94" style="fill:none;stroke:#ADD8E6;stroke-width:6.91"/>
	<circle cx="1866.52" cy="831.87" r="9.40" style="fill:#ADD8E6"/>
	<circle cx="1866.52" cy="831.87" r="5.94" style="fill:none;stroke:#ADD8E6;stroke-width:6.91"/>
	<circle cx="1866.52" cy="831.87" r="9.40" style="fill:#ADD8E6"/>
	<circle cx="1866.52" cy="831.87" r="5.94" style="fill:none;stroke:#ADD8E6;stroke-width:6.91"/>
	<circle cx="1866.52" cy="831.87" r="9.40" style="fill:#ADD8E6"/>
	<circle cx="1866.52" cy="831.87" r="5.94" style="fill:none;stroke:#ADD8E6;stroke-width:6.91"/>
	<circle cx="1866.52" cy="831.87" r="9.40" style="fill:#ADD8E6"/>
	<circle cx="1866.52" cy="831.87" r="5.94" style="fill:none;stroke:#ADD8E6;stroke-width:6.91"/>
	<circle cx="1877.54" cy="831.87" r="9.40" style="fill:#ADD8E6"/>
	<circle cx="1877.54" cy="831.87" r="5.94" style="fill:none;stroke:#ADD8E6;stroke-width:6.91"/>
	<circle cx="1877.54" cy="831.87" r="9.40" style="fill:#ADD8E6"/>
	<circle cx="1877.54" cy="831.87" r="5.94" style="fill:none;stroke:#ADD8E6;stroke-width:6.91"/>
	<circle cx="1888.30" cy="831.87" r="9.40" style="fill:#ADD8E6"/>
	<circle cx="1888.30" cy="831.87" r="5.94" style="fill:none;stroke:#ADD8E6;stroke-width:6.91"/>
	<circle cx="1906.86" cy="831.87" r="9.40" style="fill:#ADD8E6"/>
	<circle cx="1906.86" cy="831.87" r="5.94" style="fill:none;stroke:#ADD8E6;stroke-width:6.91"/>
	<circle cx="1908.47" cy="831.87" r="9.40" style="fill:#ADD8E6"/>
	<circle cx="1908.47" cy="831.87" r="5.94" style="fill:none;stroke:#ADD8E6;stroke-width:6.91"/>
	<circle cx="1908.84" cy="831.87" r="9.40" style="fill:#ADD8E6"/>
	<circle cx="1908.84" cy="831.87" r="5.94" style="fill:none;stroke:#ADD8E6;stroke-width:6.91"/>
	<circle cx="1908.84" cy="831.87" r="9.40" style="fill:#ADD8E6"/>
	<circle cx="1908.84" cy="831.87" r="5.94" style="fill:none;stroke:#ADD8E6;stroke-width:6.91"/>
	<circle cx="1928.27" cy="831.87" r="9.40" style="fill:#ADD8E6"/>
	<circle cx="1928.27" cy="831.87" r="5.94" style="fill:none;stroke:#ADD8E6;stroke-width:6.91"/>
	<circle cx="1928.27" cy="831.87" r="9.40" style="fill:#ADD8E6"/>
	<circle cx="1928.27" cy="831.87" r="5.94" style="fill:none;stroke:#ADD8E6;stroke-width:6.91"/>
	<circle cx="1944.98" cy="831.87" r="9.40" style="fill:#ADD8E6"/>
	<circle cx="1944.98" cy="831.87" r="5.94" style="fill:none;stroke:#ADD8E6;stroke-width:6.91"/>
	<circle cx="1944.98" cy="831.87" r="9.40" style="fill:#ADD8E6"/>
	<circle cx="1944.98" cy="831.87" r="5.94" style="fill:none;stroke:#ADD8E6;stroke-width:6.91"/>
	<circle cx="1944.98" cy="831.87" r="9.40" style="fill:#ADD8E6"/>
	<circle cx="1944.98" cy="831.87" r="5.94" style="fill:none;stroke:#ADD8E6;stroke-width:6.91"/>
	<circle cx="1946.34" cy="831.87" r="9.40" style="fill:#ADD8E6"/>
	<circle cx="1946.34" cy="831.87" r="5.94" style="fill:none;stroke:#ADD8E6;stroke-width:6.91"/>
	<circle cx="1946.34" cy="831.87" r="9.40" style="fill:#ADD8E6"/>
	<circle cx="1946.34" cy="831.87" r="5.94" style="fill:none;stroke:#ADD8E6;stroke-width:6.91"/>
	<circle cx="1946.34" cy="831.87" r="9.40" style="fill:#ADD8E6"/>
	<circle cx="1946.34" cy="831.87" r="5.94" style="fill:none;stroke:#ADD8E6;stroke-width:6.91"/>
	<circle cx="1946.71" cy="831.87" r="9.40" style="fill:#ADD8E6"/>
	<circle cx="1946.71" cy="831.87" r="5.94" style="fill:none;stroke:#ADD8E6;stroke-width:6.91"/>
	<circle cx="1946.71" cy="831.87" r="9.40" style="fill:#ADD8E6"/>
	<circle cx="1946.71" cy="831.87" r="5.94" style="fill:none;stroke:#ADD8E6;stroke-width:6.91"/>
	<circle cx="1946.71" cy="831.87" r="9.40" style="fill:#ADD8E6"/>
	<circle cx="1946.71" cy="831.87" r="5.94" style="fill:none;stroke:#ADD8E6;stroke-width:6.91"/>
	<circle cx="1946.71" cy="831.87" r="9.40" style="fill:#ADD8E6"/>
	<circle cx="1946.71" cy="831.87" r="5.94" style="fill:none;stroke:#ADD8E6;stroke-width:6.91"/>
	<circle cx="1946.71" cy="831.87" r="9.40" style="fill:#ADD8E6"/>
	<circle cx="1946.71" cy="831.87" r="5.94" style="fill:none;stroke:#ADD8E6;stroke-width:6.91"/>
	<circle cx="1946.71" cy="831.87" r="9.40" style="fill:#ADD8E6"/>
	<circle cx="1946.71" cy="831.87" r="5.94" style="fill:none;stroke:#ADD8E6;stroke-width:6.91"/>
	<circle cx="1946.71" cy="831.87" r="9.40" style="fill:#ADD8E6"/>
	<circle cx="1946.71" cy="831.87" r="5.94" style="fill:none;stroke:#ADD8E6;stroke-width:6.91"/>
	<circle cx="1946.71" cy="831.87" r="9.40" style="fill:#ADD8E6"/>
	<circle cx="1946.71" cy="831.87" r="5.94" style="fill:none;stroke:#ADD8E6;stroke-width:6.91"/>
	<circle cx="1946.71" cy="831.87" r="9.40" style="fill:#ADD8E6"/>
	<circle cx="1946.71" cy="831.87" r="5.94" style="fill:none;stroke:#ADD8E6;stroke-width:6.91"/>
	<circle cx="1950.30" cy="831.87" r="9.40" style="fill:#ADD8E6"/>
	<circle cx="1950.30" cy="831.87" r="5.94" style="fill:none;stroke:#ADD8E6;stroke-width:6.91"/>
	<circle cx="1955.62" cy="831.87" r="9.40" style="fill:#ADD8E6"/>
	<circle cx="1955.62" cy="831.87" r="5.94" style="fill:none;stroke:#ADD8E6;stroke-width:6.91"/>
	<circle cx="1964.28" cy="831.87" r="9.40" style="fill:#ADD8E6"/>
	<circle cx="1964.28" cy="831.87" r="5.94" style="fill:none;stroke:#ADD8E6;stroke-width:6.91"/>
	<circle cx="1979.38" cy="831.87" r="9.40" style="fill:#ADD8E6"/>
	<circle cx="1979.38" cy="831.87" r="5.94" style="fill:none;stroke:#ADD8E6;stroke-width:6.91"/>
	<circle cx="2004.75" cy="831.87" r="9.40" style="fill:#ADD8E6"/>
	<circle cx="2004.75" cy="831.87" r="5.94" style="fill:none;stroke:#ADD8E6;stroke-width:6.91"/>
	<circle cx="2010.81" cy="831.87" r="9.40" style="fill:#ADD8E6"/>
	<circle cx="2010.81" cy="831.87" r="5.94" style="fill:none;stroke:#ADD8E6;stroke-width:6.91"/>
	<circle cx="2012.30" cy="831.87" r="9.40" style="fill:#ADD8E6"/>
	<circle cx="2012.30" cy="831.87" r="5.94" style="fill:none;stroke:#ADD8E6;stroke-width:6.91"/>
	<circle cx="2012.30" cy="831.87" r="9.40" style="fill:#ADD8E6"/>
	<circle cx="2012.30" cy="831.87" r="5.94" style="fill:none;stroke:#ADD8E6;stroke-width:6.91"/>
	<circle cx="2012.30" cy="831.87" r="9.40" style="fill:#ADD8E6"/>
	<circle cx="2012.30" cy="831.87" r="5.94" style="fill:none;stroke:#ADD8E6;stroke-width:6.91"/>
	<circle cx="2039.77" cy="831.87" r="9.40" style="fill:#ADD8E6"/>
	<circle cx="2039.77" cy="831.87" r="5.94" style="fill:none;stroke:#ADD8E6;stroke-width:6.91"/>
	<circle cx="2039.77" cy="831.87" r="9.40" style="fill:#ADD8E6"/>
	<circle cx="2039.77" cy="831.87" r="5.94" style="fill:none;stroke:#ADD8E6;stroke-width:6.91"/>
	<circle cx="2041.13" cy="831.87" r="9.40" style="fill:#ADD8E6"/>
	<circle cx="2041.13" cy="831.87" r="5.94" style="fill:none;stroke:#ADD8E6;stroke-width:6.91"/>
	<circle cx="2074.17" cy="831.87" r="9.40" style="fill:#ADD8E6"/>
	<circle cx="2074.17" cy="831.87" r="5.94" style="fill:none;stroke:#ADD8E6;stroke-width:6.91"/>
	<circle cx="2080.36" cy="831.87" r="9.40" style="fill:#ADD8E6"/>
	<circle cx="2080.36" cy="831.87" r="5.94" style="fill:none;stroke:#ADD8E6;stroke-width:6.91"/>
	<circle cx="2091.38" cy="831.87" r="9.40" style="fill:#ADD8E6"/>
	<circle cx="2091.38" cy="831.87" r="5.94" style="fill:none;stroke:#ADD8E6;stroke-width:6.91"/>
	<circle cx="2091.38" cy="831.87" r="9.40" style="fill:#ADD8E6"/>
	<circle cx="2091.38" cy="831.87" r="5.94" style="fill:none;stroke:#ADD8E6;stroke-width:6.91"/>
	<circle cx="2091.38" cy="831.87" r="9.40" style="fill:#ADD8E6"/>
	<circle cx="2091.38" cy="831.87" r="5.94" style="fill:none;stroke:#ADD8E6;stroke-width:6.91"/>
	<circle cx="2092.61" cy="831.87" r="9.40" style="fill:#ADD8E6"/>
	<circle cx="2092.61" cy="831.87" r="5.94" style="fill:none;stroke:#ADD8E6;stroke-width:6.91"/>
	<circle cx="2092.61" cy="831.87" r="9.40" style="fill:#ADD8E6"/>
	<circle cx="2092.61" cy="831.87" r="5.94" style="fill:none;stroke:#ADD8E6;stroke-width:6.91"/>
	<circle cx="2092.61" cy="831.87" r="9.40" style="fill:#ADD8E6"/>
	<circle cx="2092.61" cy="831.87" r="5.94" style="fill:none;stroke:#ADD8E6;stroke-width:6.91"/>
	<circle cx="2092.61" cy="831.87" r="9.40" style="fill:#ADD8E6"/>
	<circle cx="2092.61" cy="831.87" r="5.94" style="fill:none;stroke:#ADD8E6;stroke-width:6.91"/>
	<circle cx="2092.61" cy="831.87" r="9.40" style="fill:#ADD8E6"/>
	<circle cx="2092.61" cy="831.87" r="5.94" style="fill:none;stroke:#ADD8E6;stroke-width:6.91"/>
	<circle cx="2115.88" cy="831.87" r="9.40" style="fill:#ADD8E6"/>
	<circle cx="2115.88" cy="831.87" r="5.94" style="fill:none;stroke:#ADD8E6;stroke-width:6.91"/>
	<circle cx="2126.89" cy="831.87" r="9.40" style="fill:#ADD8E6"/>
	<circle cx="2126.89" cy="831.87" r="5.94" style="fill:none;stroke:#ADD8E6;stroke-width:6.91"/>
	<circle cx="2137.66" cy="831.87" r="9.40" style="fill:#ADD8E6"/>
	<circle cx="2137.66" cy="831.87" r="5.94" style="fill:none;stroke:#ADD8E6;stroke-width:6.91"/>
	<circle cx="2143.97" cy="831.87" r="9.40" style="fill:#ADD8E6"/>
	<circle cx="2143.97" cy="831.87" r="5.94" style="fill:none;stroke:#ADD8E6;stroke-width:6.91"/>
	<circle cx="2177.63" cy="831.87" r="9.40" style="fill:#ADD8E6"/>
	<circle cx="2177.63" cy="831.87" r="5.94" style="fill:none;stroke:#ADD8E6;stroke-width:6.91"/>
	<circle cx="2195.20" cy="831.87" r="9.40" style="fill:#ADD8E6"/>
	<circle cx="2195.20" cy="831.87" r="5.94" style="fill:none;stroke:#ADD8E6;stroke-width:6.91"/>
	<circle cx="2196.07" cy="831.87" r="9.40" style="fill:#ADD8E6"/>
	<circle cx="2196.07" cy="831.87" r="5.94" style="fill:none;stroke:#ADD8E6;stroke-width:6.91"/>
	<circle cx="2196.07" cy="831.87" r="9.40" style="fill:#ADD8E6"/>
	<circle cx="2196.07" cy="831.87" r="5.94" style="fill:none;stroke:#ADD8E6;stroke-width:6.91"/>
	<circle cx="2196.07" cy="831.87" r="9.40" style="fill:#ADD8E6"/>
	<circle cx="2196.07" cy="831.87" r="5.94" style="fill:none;stroke:#ADD8E6;stroke-width:6.91"/>
	<circle cx="2310.66" cy="831.87" r="9.40" style="fill:#ADD8E6"/>
	<circle cx="2310.66" cy="831.87" r="5.94" style="fill:none;stroke:#ADD8E6;stroke-width:6.91"/>
	<circle cx="2397.41" cy="831.87" r="9.40" style="fill:#ADD8E6"/>
	<circle cx="2397.41" cy="831.87" r="5.94" style="fill:none;stroke:#ADD8E6;stroke-width:6.91"/>
	<circle cx="2481.68" cy="831.87" r="9.40" style="fill:#ADD8E6"/>
	<circle cx="2481.68" cy="831.87" r="5.94" style="fill:none;stroke:#ADD8E6;stroke-width:6.91"/>
	<circle cx="2487.75" cy="831.87" r="9.40" style="fill:#ADD8E6"/>
	<circle cx="2487.75" cy="831.87" r="5.94" style="fill:none;stroke:#ADD8E6;stroke-width:6.91"/>
	<circle cx="2487.75" cy="831.87" r="9.40" style="fill:#ADD8E6"/>
	<circle cx="2487.75" cy="831.87" r="5.94" style="fill:none;stroke:#ADD8E6;stroke-width:6.91"/>
	<circle cx="2539.72" cy="831.87" r="9.40" style="fill:#ADD8E6"/>
	<circle cx="2539.72" cy="831.87" r="5.94" style="fill:none;stroke:#ADD8E6;stroke-width:6.91"/>
	<circle cx="384.62" cy="704.53" r="9.40" style="fill:#EAFFAA"/>
	<circle cx="384.62" cy="704.53" r="5.94" style="fill:none;stroke:#EAFFAA;stroke-width:6.91"/>
	<circle cx="1818.51" cy="704.53" r="9.40" style="fill:#EAFFAA"/>
	<circle cx="1818.51" cy="704.53" r="5.94" style="fill:none;stroke:#EAFFAA;stroke-width:6.91"/>
	<circle cx="1843.26" cy="704.53" r="9.40" style="fill:#EAFFAA"/>
	<circle cx="1843.26" cy="704.53" r="5.94" style="fill:none;stroke:#EAFFAA;stroke-width:6.91"/>
	<circle cx="1888.30" cy="704.53" r="9.40" style="fill:#EAFFAA"/>
	<circle cx="1888.30" cy="704.53" r="5.94" style="fill:none;stroke:#EAFFAA;stroke-width:6.91"/>
	<circle cx="1946.71" cy="704.53" r="9.40" style="fill:#EAFFAA"/>
	<circle cx="1946.71" cy="704.53" r="5.94" style="fill:none;stroke:#EAFFAA;stroke-width:6.91"/>
	<circle cx="1946.71" cy="704.53" r="9.40" style="fill:#EAFFAA"/>
	<circle cx="1946.71" cy="704.53" r="5.94" style="fill:none;stroke:#EAFFAA;stroke-width:6.91"/>
	<circle cx="2158.20" cy="704.53" r="9.40" style="fill:#EAFFAA"/>
	<circle cx="2158.20" cy="704.53" r="5.94" style="fill:none;stroke:#EAFFAA;stroke-width:6.91"/>
	<circle cx="2168.10" cy="704.53" r="9.40" style="fill:#EAFFAA"/>
	<circle cx="2168.10" cy="704.53" r="5.94" style="fill:none;stroke:#EAFFAA;stroke-width:6.91"/>
	<circle cx="2175.53" cy="704.53" r="9.40" style="fill:#EAFFAA"/>
	<circle cx="2175.53" cy="704.53" r="5.94" style="fill:none;stroke:#EAFFAA;stroke-width:6.91"/>
	<circle cx="3603.23" cy="704.53" r="9.40" style="fill:#EAFFAA"/>
	<circle cx="3603.23" cy="704.53" r="5.94" style="fill:none;stroke:#EAFFAA;stroke-width:6.91"/>
	<circle cx="1818.51" cy="577.31" r="9.40" style="fill:#C10534"/>
	<circle cx="1818.51" cy="577.31" r="5.94" style="fill:none;stroke:#C10534;stroke-width:6.91"/>
	<circle cx="1866.03" cy="577.31" r="9.40" style="fill:#C10534"/>
	<circle cx="1866.03" cy="577.31" r="5.94" style="fill:none;stroke:#C10534;stroke-width:6.91"/>
	<circle cx="1866.52" cy="577.31" r="9.40" style="fill:#C10534"/>
	<circle cx="1866.52" cy="577.31" r="5.94" style="fill:none;stroke:#C10534;stroke-width:6.91"/>
	<circle cx="1888.30" cy="577.31" r="9.40" style="fill:#C10534"/>
	<circle cx="1888.30" cy="577.31" r="5.94" style="fill:none;stroke:#C10534;stroke-width:6.91"/>
	<circle cx="1946.71" cy="577.31" r="9.40" style="fill:#C10534"/>
	<circle cx="1946.71" cy="577.31" r="5.94" style="fill:none;stroke:#C10534;stroke-width:6.91"/>
	<circle cx="1946.71" cy="577.31" r="9.40" style="fill:#C10534"/>
	<circle cx="1946.71" cy="577.31" r="5.94" style="fill:none;stroke:#C10534;stroke-width:6.91"/>
	<circle cx="2012.30" cy="577.31" r="9.40" style="fill:#C10534"/>
	<circle cx="2012.30" cy="577.31" r="5.94" style="fill:none;stroke:#C10534;stroke-width:6.91"/>
	<circle cx="2012.30" cy="577.31" r="9.40" style="fill:#C10534"/>
	<circle cx="2012.30" cy="577.31" r="5.94" style="fill:none;stroke:#C10534;stroke-width:6.91"/>
	<circle cx="2012.30" cy="577.31" r="9.40" style="fill:#C10534"/>
	<circle cx="2012.30" cy="577.31" r="5.94" style="fill:none;stroke:#C10534;stroke-width:6.91"/>
	<circle cx="2041.13" cy="577.31" r="9.40" style="fill:#C10534"/>
	<circle cx="2041.13" cy="577.31" r="5.94" style="fill:none;stroke:#C10534;stroke-width:6.91"/>
	<circle cx="2092.61" cy="577.31" r="9.40" style="fill:#C10534"/>
	<circle cx="2092.61" cy="577.31" r="5.94" style="fill:none;stroke:#C10534;stroke-width:6.91"/>
	<circle cx="2115.88" cy="577.31" r="9.40" style="fill:#C10534"/>
	<circle cx="2115.88" cy="577.31" r="5.94" style="fill:none;stroke:#C10534;stroke-width:6.91"/>
	<circle cx="2319.94" cy="577.31" r="9.40" style="fill:#C10534"/>
	<circle cx="2319.94" cy="577.31" r="5.94" style="fill:none;stroke:#C10534;stroke-width:6.91"/>
	<text x="82.81" y="1046.96" style="font-family:'Helvetica';font-size:63.98px;fill:#000000" transform="rotate(-90 82.81,1046.96)">Negative response</text>
	<text x="77.99" y="1852.35" style="font-family:'Helvetica';font-size:63.98px;fill:#000000" transform="rotate(-90 77.99,1852.35)">Postivie response</text>
	<line x1="100.86" y1="2029.81" x2="3859.02" y2="2029.81" style="stroke:#000000;stroke-width:4.61"/>
	<line x1="181.42" y1="2029.81" x2="181.42" y2="2061.86" style="stroke:#000000;stroke-width:4.61"/>
	<text x="181.42" y="2122.55" style="font-family:'Helvetica';font-size:63.98px;fill:#000000" text-anchor="middle">2</text>
	<line x1="900.78" y1="2029.81" x2="900.78" y2="2061.86" style="stroke:#000000;stroke-width:4.61"/>
	<text x="900.78" y="2122.55" style="font-family:'Helvetica';font-size:63.98px;fill:#000000" text-anchor="middle">4</text>
	<line x1="1620.26" y1="2029.81" x2="1620.26" y2="2061.86" style="stroke:#000000;stroke-width:4.61"/>
	<text x="1620.26" y="2122.55" style="font-family:'Helvetica';font-size:63.98px;fill:#000000" text-anchor="middle">6</text>
	<line x1="2339.62" y1="2029.81" x2="2339.62" y2="2061.86" style="stroke:#000000;stroke-width:4.61"/>
	<text x="2339.62" y="2122.55" style="font-family:'Helvetica';font-size:63.98px;fill:#000000" text-anchor="middle">8</text>
	<line x1="3059.10" y1="2029.81" x2="3059.10" y2="2061.86" style="stroke:#000000;stroke-width:4.61"/>
	<text x="3059.10" y="2122.55" style="font-family:'Helvetica';font-size:63.98px;fill:#000000" text-anchor="middle">10</text>
	<line x1="3778.46" y1="2029.81" x2="3778.46" y2="2061.86" style="stroke:#000000;stroke-width:4.61"/>
	<text x="3778.46" y="2122.55" style="font-family:'Helvetica';font-size:63.98px;fill:#000000" text-anchor="middle">12</text>
	<text x="1980.00" y="2205.75" style="font-family:'Helvetica';font-size:79.94px;fill:#000000" text-anchor="middle">ln(Price)</text>
	<rect x="-8.04" y="2283.75" width="3702.97" height="149.12" style="fill:#FFFFFF"/>
	<rect x="-5.74" y="2286.06" width="3698.36" height="144.52" style="fill:none;stroke:#EAF2F3;stroke-opacity:0.00;stroke-width:4.61"/>
	<rect x="7.80" y="2313.70" width="297.25" height="79.94" style="fill:#E0829A"/>
	<rect x="11.25" y="2317.16" width="290.34" height="73.03" style="fill:none;stroke:#C10534;stroke-width:6.91"/>
	<rect x="764.53" y="2313.70" width="297.25" height="79.94" style="fill:#F5FFD5"/>
	<rect x="767.98" y="2317.16" width="290.34" height="73.03" style="fill:none;stroke:#EAFFAA;stroke-width:6.91"/>
	<rect x="1426.96" y="2313.70" width="297.12" height="79.94" style="fill:#D6ECF3"/>
	<rect x="1430.42" y="2317.16" width="290.21" height="73.03" style="fill:none;stroke:#ADD8E6;stroke-width:6.91"/>
	<rect x="2254.11" y="2313.70" width="297.12" height="79.94" style="fill:#F1BF80"/>
	<rect x="2257.56" y="2317.16" width="290.21" height="73.03" style="fill:none;stroke:#E37E00;stroke-width:6.91"/>
	<rect x="2973.84" y="2313.70" width="297.25" height="79.94" style="fill:#CBDBD8"/>
	<rect x="2977.29" y="2317.16" width="290.34" height="73.03" style="fill:none;stroke:#97B6B0;stroke-width:6.91"/>
	<text x="364.57" y="2376.10" style="font-family:'Helvetica';font-size:63.98px;fill:#000000">Baltimore</text>
	<text x="1121.30" y="2376.10" style="font-family:'Helvetica';font-size:63.98px;fill:#000000">Dallas</text>
	<text x="1783.73" y="2376.10" style="font-family:'Helvetica';font-size:63.98px;fill:#000000">Los-Angeles</text>
	<text x="2610.88" y="2376.10" style="font-family:'Helvetica';font-size:63.98px;fill:#000000">St-Louis</text>
	<text x="3330.61" y="2376.10" style="font-family:'Helvetica';font-size:63.98px;fill:#000000">Washington</text>
</svg>
